<?xml version="1.0" standalone="no"?>
<!DOCTYPE svg PUBLIC "-//W3C//DTD SVG 20010904//EN"
 "http://www.w3.org/TR/2001/REC-SVG-20010904/DTD/svg10.dtd">
<svg version="1.0" xmlns="http://www.w3.org/2000/svg"
 width="225.000000pt" height="227.000000pt" viewBox="0 0 225.000000 227.000000"
 preserveAspectRatio="xMidYMid meet">
<g transform="translate(0.000000,227.000000) scale(0.100000,-0.100000)"
fill="#000000" stroke="none">
<path d="M993 2198 l-41 -71 -77 2 c-51 2 -82 -2 -92 -11 -9 -7 -18 -11 -21
-8 -3 3 -21 -21 -39 -52 l-34 -58 -79 0 c-78 0 -79 -1 -103 -32 -32 -44 -127
-213 -127 -226 0 -6 5 -14 11 -18 7 -4 9 0 5 12 -4 13 17 57 62 134 l67 115
85 3 85 3 34 59 c19 33 36 58 38 56 2 -2 -12 -31 -32 -65 l-36 -61 -84 0 -83
0 -66 -115 c-66 -114 -66 -116 -51 -145 l16 -30 -136 0 -135 0 0 -290 0 -290
-44 0 c-43 0 -46 -2 -72 -50 -15 -28 -29 -48 -32 -46 -2 3 9 27 25 53 27 43
33 48 71 51 l42 3 2 287 3 287 128 3 c70 1 127 6 127 10 0 11 -243 2 -257 -10
-10 -8 -13 -75 -13 -289 l0 -278 -38 -3 c-32 -3 -41 -10 -69 -51 l-32 -47 -1
-375 -1 -375 81 0 80 0 0 -35 0 -35 168 0 167 0 33 -61 c43 -80 36 -87 -8 -9
l-33 60 -166 2 -166 3 -3 33 -3 32 -77 -2 -77 -2 72 -3 c68 -4 73 -5 73 -26 0
-43 15 -47 181 -47 l158 0 36 -60 c20 -33 41 -59 48 -57 6 1 11 -5 12 -13 0
-12 21 -16 118 -18 113 -3 117 -3 118 -25 1 -12 5 -4 9 18 l7 40 2 -37 1 -38
295 0 295 0 1 38 2 37 7 -40 c4 -22 8 -30 9 -17 1 20 6 22 74 24 l72 2 -75 6
-75 6 78 2 77 2 0 40 0 40 168 -2 167 -2 -162 -3 -163 -3 1 -33 c2 -30 2 -30
6 -5 l4 27 156 3 156 3 -2 78 -2 77 165 0 166 0 0 354 0 355 -35 60 c-35 60
-37 61 -80 61 l-45 0 0 290 0 290 -135 0 -136 0 16 31 c16 30 16 31 -48 142
l-65 112 -85 3 -86 3 -32 57 c-53 94 -52 93 -142 91 l-79 -2 -34 59 c-18 32
-33 64 -33 69 0 6 15 -17 34 -50 l34 -60 88 -5 88 -5 40 -72 40 -73 81 0 c96
0 88 6 169 -139 49 -87 57 -106 47 -122 -7 -10 -12 -21 -12 -24 0 -2 57 -6
128 -7 l127 -3 3 -287 2 -288 41 0 c37 0 42 -3 71 -50 35 -57 46 -66 22 -17
-28 54 -54 77 -91 77 l-33 0 0 278 c0 203 -3 281 -12 290 -8 8 -52 12 -132 12
-93 0 -117 3 -108 12 19 19 16 29 -47 137 -83 144 -79 141 -172 141 l-78 0
-36 64 c-20 35 -41 69 -48 75 -7 5 -48 11 -92 13 l-79 3 -33 55 c-27 45 -38
55 -60 56 -31 1 -53 -12 -53 -30 0 -6 7 -2 15 8 8 11 15 15 15 10 0 -6 -6 -18
-13 -28 -13 -17 -14 -16 -26 13 -17 39 -35 40 -51 1 -12 -28 -14 -29 -26 -13
-7 10 -13 23 -13 28 0 6 6 2 13 -8 13 -16 14 -16 20 -1 4 9 4 19 1 22 -3 3 -5
0 -5 -7 0 -7 -5 -9 -12 -4 -32 20 -45 11 -85 -59z m-333 -307 c0 -6 -16 -37
-35 -70 -19 -32 -35 -65 -35 -71 0 -6 16 -40 35 -74 19 -35 35 -66 35 -69 0
-4 -18 -7 -39 -7 -38 0 -40 2 -80 71 -23 39 -41 73 -41 76 0 3 18 39 41 79 40
72 41 74 80 74 21 0 39 -4 39 -9z m441 -26 c12 -19 22 -35 24 -35 2 0 12 16
24 35 l20 35 124 0 124 0 42 -71 c22 -40 41 -76 41 -81 0 -5 -19 -41 -41 -79
l-41 -69 -80 0 c-44 0 -78 -3 -76 -7 2 -5 10 -20 17 -35 13 -25 12 -32 -5 -63
l-19 -35 -131 0 -131 0 -18 39 c-16 36 -16 41 -1 62 9 13 16 27 16 31 0 5 -36
8 -79 8 l-79 0 -39 68 c-21 37 -39 70 -41 74 -2 4 16 41 39 83 l43 75 123 0
124 0 20 -35z m608 -36 c23 -39 41 -75 41 -81 0 -5 -18 -41 -40 -79 -40 -67
-42 -69 -80 -69 -22 0 -40 3 -40 6 0 4 17 37 39 74 l39 68 -39 68 c-21 38 -39
72 -39 77 0 4 18 7 39 7 38 0 40 -2 80 -71z m-1234 -256 c24 -36 25 -44 25
-185 l0 -148 -45 0 -45 0 0 145 0 145 -40 0 -40 0 0 -290 0 -290 40 0 40 0 0
75 0 75 45 0 45 0 0 -110 0 -110 -130 0 -130 0 0 358 c0 197 3 362 7 365 3 4
50 7 104 7 l98 0 26 -37z m1533 -150 l2 -183 -45 0 -45 0 0 145 0 145 -40 0
-40 0 0 -180 0 -180 85 0 85 0 0 -145 0 -145 -130 0 -130 0 0 70 0 70 45 0
c45 0 45 0 45 -35 0 -34 1 -35 40 -35 l40 0 0 70 0 69 -82 3 -83 3 -3 217 -2
218 25 40 26 41 102 -3 102 -3 3 -182z m-1338 -184 l0 -220 38 3 37 3 3 183
c2 171 4 182 21 182 11 0 28 -15 40 -34 20 -31 21 -48 21 -255 l0 -221 -40 0
c-39 0 -40 1 -40 35 0 34 -1 35 -40 35 -39 0 -40 -1 -40 -35 0 -35 0 -35 -45
-35 l-45 0 0 290 0 290 45 0 45 0 0 -221z m1000 -69 l0 -290 -125 0 -125 0 0
219 0 219 41 71 41 71 84 0 84 0 0 -290z m-380 213 c0 -5 -9 -23 -20 -40 l-20
-33 -124 0 -124 0 -21 34 c-12 18 -21 36 -21 40 0 3 74 6 165 6 91 0 165 -3
165 -7z m28 -253 c21 -38 22 -48 22 -289 l0 -251 40 0 40 0 0 110 0 110 40 0
40 0 0 -80 c0 -61 -5 -87 -19 -111 -19 -31 -19 -32 0 -63 17 -28 19 -52 19
-218 l0 -188 -40 0 -40 0 0 180 0 180 -40 0 -40 0 0 -215 0 -215 -45 0 -45 0
0 435 0 435 -125 0 -125 0 0 -70 0 -70 85 0 85 0 0 -365 0 -365 -45 0 -45 0 0
325 0 325 -40 0 -40 0 0 -325 0 -325 -45 0 -45 0 0 503 c0 501 0 502 22 545
l23 42 170 0 170 0 23 -40z m-1158 -215 l0 -105 170 0 170 0 -2 -257 -3 -258
-40 0 -40 0 -3 218 -2 217 -40 0 -40 0 -2 -217 -3 -218 -40 0 -40 0 0 218 0
217 -42 0 -43 0 0 -180 0 -180 -40 0 -40 0 0 290 c0 251 2 294 17 325 12 25
23 35 40 35 23 0 23 -2 23 -105z m1993 74 c15 -27 17 -63 17 -325 l0 -294
-125 0 -125 0 0 35 0 34 83 3 82 3 3 33 3 32 -85 0 -86 0 0 151 0 150 43 -3
42 -3 3 -107 3 -108 39 0 40 0 0 215 0 215 23 0 c14 0 28 -11 40 -31z m-1323
-509 l0 -330 -104 0 -104 0 -21 36 c-20 34 -21 48 -21 330 l0 294 125 0 125 0
0 -330z m1010 110 l0 -220 -85 0 -85 0 0 -35 0 -35 85 0 85 0 0 -40 0 -41
-127 3 -128 3 -3 280 c-1 154 0 285 3 292 3 10 38 13 130 13 l125 0 0 -220z"/>
<path d="M860 1793 c-8 -15 -16 -31 -18 -35 -2 -5 15 -8 37 -8 37 0 43 -3 58
-35 16 -34 19 -36 62 -33 39 3 48 7 64 36 18 31 18 33 0 65 -19 32 -20 32
-104 35 -85 3 -86 2 -99 -25z"/>
<path d="M1191 1788 l-20 -33 43 -3 c38 -3 45 -7 59 -37 15 -32 20 -35 62 -35
42 0 47 3 62 35 16 34 16 38 -2 70 l-18 35 -83 0 c-82 0 -82 0 -103 -32z"/>
<path d="M1500 1165 l0 -215 40 0 40 0 0 215 0 215 -40 0 -40 0 0 -215z"/>
<path d="M1000 1055 l0 -35 125 0 125 0 0 35 0 35 -125 0 -125 0 0 -35z"/>
<path d="M670 480 l0 -250 40 0 40 0 0 250 0 250 -40 0 -40 0 0 -250z"/>
<path d="M1670 585 l0 -145 40 0 40 0 0 145 0 145 -40 0 -40 0 0 -145z"/>
</g>
</svg>
